<mxfile host="www.draw.io" modified="2019-10-31T06:02:06.204Z" agent="Mozilla/5.0 (Windows NT 10.0; Win64; x64) AppleWebKit/537.36 (KHTML, like Gecko) Chrome/77.0.3865.90 Safari/537.36" etag="N5sV3UK6TvvMofR7EPps" version="12.1.9" type="github" pages="1">
  <diagram id="C2fnmqKjMYd2FCzCid-X" name="Page-1">
    <mxGraphModel dx="1024" dy="1703" grid="1" gridSize="10" guides="1" tooltips="1" connect="1" arrows="1" fold="1" page="1" pageScale="1" pageWidth="827" pageHeight="1169" math="0" shadow="0">
      <root>
        <mxCell id="0"/>
        <mxCell id="1" parent="0"/>
        <mxCell id="JQM4wTi-yuJB52zFn70r-1" value="Actor" style="shape=umlActor;verticalLabelPosition=bottom;labelBackgroundColor=#ffffff;verticalAlign=top;html=1;outlineConnect=0;" vertex="1" parent="1">
          <mxGeometry x="190" y="190" width="30" height="60" as="geometry"/>
        </mxCell>
        <mxCell id="JQM4wTi-yuJB52zFn70r-3" value="录音列表" style="ellipse;whiteSpace=wrap;html=1;aspect=fixed;" vertex="1" parent="1">
          <mxGeometry x="360" y="40" width="80" height="80" as="geometry"/>
        </mxCell>
        <mxCell id="JQM4wTi-yuJB52zFn70r-4" value="导出" style="ellipse;whiteSpace=wrap;html=1;aspect=fixed;" vertex="1" parent="1">
          <mxGeometry x="360" y="160" width="80" height="80" as="geometry"/>
        </mxCell>
        <mxCell id="JQM4wTi-yuJB52zFn70r-5" value="录音转义" style="ellipse;whiteSpace=wrap;html=1;aspect=fixed;" vertex="1" parent="1">
          <mxGeometry x="360" y="280" width="80" height="80" as="geometry"/>
        </mxCell>
        <mxCell id="JQM4wTi-yuJB52zFn70r-6" value="录音播放" style="ellipse;whiteSpace=wrap;html=1;aspect=fixed;" vertex="1" parent="1">
          <mxGeometry x="360" y="400" width="80" height="80" as="geometry"/>
        </mxCell>
        <mxCell id="JQM4wTi-yuJB52zFn70r-9" value="" style="endArrow=classic;html=1;entryX=0;entryY=0.5;entryDx=0;entryDy=0;" edge="1" parent="1" target="JQM4wTi-yuJB52zFn70r-3">
          <mxGeometry width="50" height="50" relative="1" as="geometry">
            <mxPoint x="220" y="220" as="sourcePoint"/>
            <mxPoint x="260" y="140" as="targetPoint"/>
          </mxGeometry>
        </mxCell>
        <mxCell id="JQM4wTi-yuJB52zFn70r-11" value="" style="endArrow=classic;html=1;entryX=0;entryY=0.5;entryDx=0;entryDy=0;" edge="1" parent="1" target="JQM4wTi-yuJB52zFn70r-6">
          <mxGeometry width="50" height="50" relative="1" as="geometry">
            <mxPoint x="220" y="220" as="sourcePoint"/>
            <mxPoint x="270" y="210" as="targetPoint"/>
          </mxGeometry>
        </mxCell>
        <mxCell id="JQM4wTi-yuJB52zFn70r-12" value="" style="endArrow=classic;html=1;entryX=0.005;entryY=0.628;entryDx=0;entryDy=0;entryPerimeter=0;" edge="1" parent="1" target="JQM4wTi-yuJB52zFn70r-4">
          <mxGeometry width="50" height="50" relative="1" as="geometry">
            <mxPoint x="220" y="220" as="sourcePoint"/>
            <mxPoint x="270" y="180" as="targetPoint"/>
          </mxGeometry>
        </mxCell>
        <mxCell id="JQM4wTi-yuJB52zFn70r-13" value="" style="endArrow=classic;html=1;entryX=0;entryY=0.5;entryDx=0;entryDy=0;" edge="1" parent="1" target="JQM4wTi-yuJB52zFn70r-5">
          <mxGeometry width="50" height="50" relative="1" as="geometry">
            <mxPoint x="220" y="220" as="sourcePoint"/>
            <mxPoint x="270" y="220" as="targetPoint"/>
          </mxGeometry>
        </mxCell>
        <mxCell id="JQM4wTi-yuJB52zFn70r-15" value="基础数据&lt;br&gt;业务组" style="shape=umlBoundary;whiteSpace=wrap;html=1;" vertex="1" parent="1">
          <mxGeometry x="600" y="-40" width="100" height="80" as="geometry"/>
        </mxCell>
        <mxCell id="JQM4wTi-yuJB52zFn70r-16" value="基础数据&lt;br&gt;中继、400号码" style="shape=umlBoundary;whiteSpace=wrap;html=1;" vertex="1" parent="1">
          <mxGeometry x="600" y="60" width="100" height="80" as="geometry"/>
        </mxCell>
        <mxCell id="JQM4wTi-yuJB52zFn70r-17" value="基础数据&lt;br&gt;坐席" style="shape=umlBoundary;whiteSpace=wrap;html=1;" vertex="1" parent="1">
          <mxGeometry x="600" y="160" width="100" height="80" as="geometry"/>
        </mxCell>
        <mxCell id="JQM4wTi-yuJB52zFn70r-18" value="基础数据&lt;br&gt;技能组" style="shape=umlBoundary;whiteSpace=wrap;html=1;" vertex="1" parent="1">
          <mxGeometry x="600" y="260" width="100" height="80" as="geometry"/>
        </mxCell>
        <mxCell id="JQM4wTi-yuJB52zFn70r-19" value="基础数据&lt;br&gt;满意度配置" style="shape=umlBoundary;whiteSpace=wrap;html=1;" vertex="1" parent="1">
          <mxGeometry x="600" y="-140" width="100" height="80" as="geometry"/>
        </mxCell>
        <mxCell id="JQM4wTi-yuJB52zFn70r-25" value="dispatch" style="html=1;verticalAlign=bottom;endArrow=block;entryX=0.02;entryY=0.495;entryDx=0;entryDy=0;entryPerimeter=0;" edge="1" parent="1" target="JQM4wTi-yuJB52zFn70r-15">
          <mxGeometry width="80" relative="1" as="geometry">
            <mxPoint x="440" y="80" as="sourcePoint"/>
            <mxPoint x="520" y="80" as="targetPoint"/>
          </mxGeometry>
        </mxCell>
        <mxCell id="JQM4wTi-yuJB52zFn70r-26" value="dispatch" style="html=1;verticalAlign=bottom;endArrow=block;entryX=-0.02;entryY=0.515;entryDx=0;entryDy=0;entryPerimeter=0;" edge="1" parent="1" target="JQM4wTi-yuJB52zFn70r-16">
          <mxGeometry width="80" relative="1" as="geometry">
            <mxPoint x="440" y="80" as="sourcePoint"/>
            <mxPoint x="520" y="80" as="targetPoint"/>
          </mxGeometry>
        </mxCell>
        <mxCell id="JQM4wTi-yuJB52zFn70r-27" value="dispatch" style="html=1;verticalAlign=bottom;endArrow=block;entryX=0.012;entryY=0.535;entryDx=0;entryDy=0;entryPerimeter=0;" edge="1" parent="1" target="JQM4wTi-yuJB52zFn70r-17">
          <mxGeometry width="80" relative="1" as="geometry">
            <mxPoint x="440" y="80" as="sourcePoint"/>
            <mxPoint x="520" y="80" as="targetPoint"/>
          </mxGeometry>
        </mxCell>
        <mxCell id="JQM4wTi-yuJB52zFn70r-28" value="dispatch" style="html=1;verticalAlign=bottom;endArrow=block;entryX=-0.028;entryY=0.585;entryDx=0;entryDy=0;entryPerimeter=0;" edge="1" parent="1" target="JQM4wTi-yuJB52zFn70r-18">
          <mxGeometry width="80" relative="1" as="geometry">
            <mxPoint x="440" y="80" as="sourcePoint"/>
            <mxPoint x="520" y="80" as="targetPoint"/>
          </mxGeometry>
        </mxCell>
        <mxCell id="JQM4wTi-yuJB52zFn70r-29" value="dispatch" style="html=1;verticalAlign=bottom;endArrow=block;entryX=-0.02;entryY=0.535;entryDx=0;entryDy=0;entryPerimeter=0;" edge="1" parent="1" target="JQM4wTi-yuJB52zFn70r-19">
          <mxGeometry width="80" relative="1" as="geometry">
            <mxPoint x="440" y="80" as="sourcePoint"/>
            <mxPoint x="520" y="80" as="targetPoint"/>
          </mxGeometry>
        </mxCell>
      </root>
    </mxGraphModel>
  </diagram>
</mxfile>
